<svg xmlns="http://www.w3.org/2000/svg" viewBox="0 0 252.37 72.46"><defs><style>.cls-1,.cls-2{fill:none;stroke:#fff;stroke-miterlimit:10;}.cls-1{stroke-width:2px;}.cls-2{stroke-width:0.75px;}</style></defs><title>Element 10</title><g id="Ebene_2" data-name="Ebene 2"><g id="Ebene_2-2" data-name="Ebene 2"><path class="cls-1" d="M1,9.41H20.16v2.31H16.84a5.51,5.51,0,0,0-2.8.49,1.53,1.53,0,0,0-.74,1.32,5.14,5.14,0,0,0,.56,1.88l.24.64,12,30.49,10.59-29.1A6.14,6.14,0,0,0,37,15.35a3.52,3.52,0,0,0-1-2.68,3.8,3.8,0,0,0-2.75-.95H30.13V9.41h16.8v2.31H45.57a4.52,4.52,0,0,0-3.06,1.44,12.52,12.52,0,0,0-2.75,4.77L25.69,56H23.45L7.38,15.31A6.36,6.36,0,0,0,5.45,12.5a5,5,0,0,0-3-.78H1Z"/><path class="cls-1" d="M70,51.74l1.11,1.72a6.84,6.84,0,0,1-5,2.31,5.47,5.47,0,0,1-3.52-1.14,9.21,9.21,0,0,1-2.51-4A18.7,18.7,0,0,1,55,54.74a12.67,12.67,0,0,1-5.33,1q-4.42,0-6.73-1.91A6.05,6.05,0,0,1,40.58,49q0-4.5,5.28-7.46t14-3.95V33.19a4.53,4.53,0,0,0-1.79-3.71,7.18,7.18,0,0,0-4.87-1.56,8.65,8.65,0,0,0-4.5.88c-.93.55-1.48.93-1.48,1.47A3,3,0,0,0,48,31.71a3.87,3.87,0,0,1,.9,2.19,3,3,0,0,1-.9,2.26,3.19,3.19,0,0,1-2.33.87,3.47,3.47,0,0,1-2.57-1,3.65,3.65,0,0,1-1-2.68q0-3,3.43-5.57a14.8,14.8,0,0,1,9-2.52c3.43,0,6,.74,7.85,2.22A6.84,6.84,0,0,1,65,32.88V48.63a5.56,5.56,0,0,0,.67,3.08,2.05,2.05,0,0,0,1.76,1A4.3,4.3,0,0,0,70,51.74ZM59.9,39.59q-7.82,1.06-11.08,3.5a6.19,6.19,0,0,0-2.43,5.23,4.4,4.4,0,0,0,2.45,3.77,7.17,7.17,0,0,0,7.33-1.79c1.67-1.75,3.73-3.82,3.73-6.59Z"/><path class="cls-1" d="M74.11,26.08l10.37-.52.13,9.05c2.27-5.39,5.38-8.63,9.65-9A5,5,0,0,1,98,27a5.25,5.25,0,0,1,1.4,3.83,4.45,4.45,0,0,1-.94,3,3,3,0,0,1-2.35,1.08A2.88,2.88,0,0,1,93.88,34,3.53,3.53,0,0,1,93,31.5a3.85,3.85,0,0,1,.49-1.91c.31-.53.25-.41.25-.51,0-.31,0-.38-.37-.38-.84,0-1.25.33-2.31,1.32-4.38,5-5.35,12-5.35,14.21l-.46,6.21A1.85,1.85,0,0,0,86,52a4.3,4.3,0,0,0,2.52.56H92.2v2.31H74.3V52.6h2.86A3.52,3.52,0,0,0,79.34,52a1.7,1.7,0,0,0,.74-1.37V32.3a4.47,4.47,0,0,0-.89-3.07,3.33,3.33,0,0,0-2.56-1H74.11Z"/><path class="cls-1" d="M102,26.08l11.48-.34v24.8A1.82,1.82,0,0,0,114,52a2.61,2.61,0,0,0,1.78.62H119v2.31H102.6V52.6h3a2.65,2.65,0,0,0,2-.66,2.69,2.69,0,0,0,.63-1.93V31.86a3.27,3.27,0,0,0-1-2.59,4.23,4.23,0,0,0-2.92-.88H102Zm8-17.19a3.57,3.57,0,0,1,3.48,3.5,3.25,3.25,0,0,1-1,2.4,3.32,3.32,0,0,1-2.43,1,3.52,3.52,0,0,1-3.48-3.45,3.34,3.34,0,0,1,1-2.43A3.33,3.33,0,0,1,110,8.89Z"/><path class="cls-1" d="M121.82,26.08l11.48-.34v24.8a1.82,1.82,0,0,0,.49,1.44,2.61,2.61,0,0,0,1.78.62h3.26v2.31H122.44V52.6h3a2.64,2.64,0,0,0,2-.66A2.69,2.69,0,0,0,128.1,50V31.86a3.27,3.27,0,0,0-1-2.59,4.23,4.23,0,0,0-2.92-.88h-2.37Zm8-17.19a3.57,3.57,0,0,1,3.48,3.5,3.25,3.25,0,0,1-1,2.4,3.47,3.47,0,0,1-5.9-2.43,3.33,3.33,0,0,1,1-2.43A3.33,3.33,0,0,1,129.82,8.89Z"/><path class="cls-1" d="M142.22,26.08l9.56-.58a41.5,41.5,0,0,1,.66,5.86,12.68,12.68,0,0,1,4.77-4.23,11.39,11.39,0,0,1,6-1.57A9.41,9.41,0,0,1,168,26.68a7.86,7.86,0,0,1,3.11,3.55,12.41,12.41,0,0,1,1.17,5.45v14a3,3,0,0,0,.71,2.23,3.43,3.43,0,0,0,2.37.66h2v2.31h-15.2V52.6h1.45a4.65,4.65,0,0,0,2.83-.65,2.34,2.34,0,0,0,.8-1.94V37.68q0-4-1.23-6c-1.15-1.84-2.18-2.6-4.51-2.6a7.11,7.11,0,0,0-5.75,2.79,11,11,0,0,0-2.84,7.17l-.25,10.64a2.93,2.93,0,0,0,.72,2.23,3.47,3.47,0,0,0,2.38.66h2v2.31H142.49V52.6h2a3.69,3.69,0,0,0,2.3-.62,1.88,1.88,0,0,0,.78-1.54V31.83a3.69,3.69,0,0,0-1-2.8,4,4,0,0,0-2.88-1h-1.47Z"/><path class="cls-1" d="M184.15,14.33h2.06V26.08h9.32v2.83h-9.32V47.4a5.37,5.37,0,0,0,1.14,3.68,3.7,3.7,0,0,0,2.89,1.27c1.39,0,2.22-.7,3.2-2A11.31,11.31,0,0,0,195.53,44h2.06c-.12,3.83-1,6.68-2.61,8.53a8,8,0,0,1-6.31,2.79,7.68,7.68,0,0,1-5.58-2,6.79,6.79,0,0,1-2-5.12V28.91h-5V26.76a8.09,8.09,0,0,0,5.22-2.86Q183.94,20.48,184.15,14.33Z"/><path class="cls-2" d="M223.06,28.32a5.62,5.62,0,0,0-2.57,1.2,38.27,38.27,0,0,1-6.21,3.3,6.5,6.5,0,0,0-1.5.77,2.52,2.52,0,0,0,.27.91,4.16,4.16,0,0,1,0,3.41c-.43,1.28-.83,1.63-1.16,1-.12-.22,0-.42.4-.83a2.94,2.94,0,0,0,.57-2.87l-.23-.59-.36,1.17a5.76,5.76,0,0,1-2.55,3.25,4.81,4.81,0,0,0-1,.81c0,.1-.24.09-.46,0a.57.57,0,0,1,.38-1.07,1.89,1.89,0,0,0,.94-.13,5.64,5.64,0,0,0,2.25-2.82c.41-1.36.24-1.67-.47-.85s-3.68,2.48-4.09,2.26-.16-.93.42-.84a7,7,0,0,0,3.31-1.57,2.66,2.66,0,0,0,.58-.93c.15-.49.15-.49-.64-.41-1.12.11-4.45,1.49-4.66,1.93s-1,.25-.85-.42c.08-.41.18-.52.45-.44a7.83,7.83,0,0,0,2.26-.67,9.58,9.58,0,0,1,2.47-.74c.89.07.94-.18.17-.86a4.16,4.16,0,0,0-4.46-.69,1.48,1.48,0,0,1-1.1.18c-.3-.24-.11-1,.23-.92a3.62,3.62,0,0,0,1.53,0,6.77,6.77,0,0,1,4.45,1.38l.69.66v-.44a3,3,0,0,0-1.42-2.25c-.59-.38-.85-.46-1.07-.35-.51.28-1,0-.83-.51a.6.6,0,0,1,1.07-.24,7.61,7.61,0,0,0,1,.72,3.17,3.17,0,0,1,1.6,2.32c0,.39.14.74.22.76a28.39,28.39,0,0,0,4.87-2.09c2.14-1.17,3.3-2,3.57-2.45a7.93,7.93,0,0,1,.7-1c.41-.48.42-.56.11-1.09a2.57,2.57,0,0,1-.33-1c0-.53-.85-.65-4.2-.59a25.6,25.6,0,0,1-5.92-.34,5.35,5.35,0,0,0-1.07-.2c-.4,0-.45.05-.36.46a8,8,0,0,1-1.07,3.6,1.94,1.94,0,0,0-.51.65c-.16.35-.35.44-.76.36s-.52-.16-.39-.58a.56.56,0,0,1,.65-.47,1.08,1.08,0,0,0,.88-.49,5,5,0,0,0,.82-2.61c-.09-.33-.16-.25-.76.81a4.86,4.86,0,0,1-2.83,1.86,4.13,4.13,0,0,0-1.25.4c-.43.33-.92-.13-.68-.64.15-.34.32-.38.9-.22a2.82,2.82,0,0,0,1.32,0,4.75,4.75,0,0,0,2.46-2.26l.2-.65-.77.28a9.22,9.22,0,0,1-3.56.53,10.59,10.59,0,0,0-1.73,0c-.82.13-1.32-.17-1.08-.62.13-.24.38-.26,1.06-.08a11,11,0,0,0,1.79.26c1.75.06,4.36-.68,4.23-1.2s-3.2-.91-3.88-.41a.55.55,0,0,1-.87-.53c.09-.28.27-.35.71-.27a12.62,12.62,0,0,0,1.62.13,7.65,7.65,0,0,1,1.77.24c1,.31,1-.08-.12-1.14s-3-1.73-3.77-1.28c-.59.34-1.2.09-1-.43.09-.31.35-.35,1.43-.23a5.86,5.86,0,0,1,4.28,2.22c.56.77.61.71.41-.41a3.2,3.2,0,0,0-1.6-2.39c-.71-.53-1-.66-1.43-.6-.6.08-.81-.3-.47-.86.21-.34.86-.28,1,.09a4.13,4.13,0,0,0,1,.85,4.14,4.14,0,0,1,2.07,3.7l0,1.25,1.57.36a29.46,29.46,0,0,0,7,.37c1.34-.25,3-1.11,3.13-1.66s.07-.56-.52-.86A32.39,32.39,0,0,1,213.47,16l-.58-.65-.5.53a5.63,5.63,0,0,1-3.17,1.6,5.29,5.29,0,0,0-1.13,0c-.4.07-.54,0-.72-.33s-.2-.44.2-.65.46-.16.59.07c.32.61,1.2.65,2.33.1s1.56-1,.48-.64a3,3,0,0,1-2.09-.16c-2.47-.74-3.4-1.39-2.66-1.87.38-.25,1,0,.91.31s.43.87,1.49,1.19a3.48,3.48,0,0,0,2.71-.06c.75-.37.74-.47-.07-.77a8.83,8.83,0,0,1-3.76-2.88,1.88,1.88,0,0,0-.81-.64c-.37-.11-.43-.22-.27-.55s1.15-.48,1-.08c-.22.71,2.31,3.2,3.92,3.88.83.34,1,.38,1.12.16.2-.66-1.38-2.64-2.5-3.13l-.5-.23c-.08,0-.08-.25,0-.46.17-.57.78-.54,1,.05a4.67,4.67,0,0,0,1,1.25,5.69,5.69,0,0,1,1.05,1.29c.37.77.54.7.85-.32.42-1.4-.3-4.1-1.21-4.49l-.54-.24c-.27-.11.09-.78.44-.81s1.18,1.46,1.76,3.22c.26.8.24,1.09-.16,2.41-.26.85-.37,1.5-.26,1.49.54,0,1.3-.86,1.7-1.91s.41-1.14,0-1.47-.46-.8,0-1c.24-.1.39,0,.6.24s.2.63-.21,2c-.46,1.55-.53,1.65-1.32,2.2l-.84.57.92,1A28.3,28.3,0,0,0,217.65,19c2,1.46,2.5,1.73,2.87,1.63a4.32,4.32,0,0,1,1.44.06c.78.14,1.06.09,1.32-.2s.18-1.19-.8-2.92a43.05,43.05,0,0,1-2.78-6.73L219.13,9,218,9.32A4.11,4.11,0,0,1,214.5,9c-.93-.42-1.09-.56-1-.88.17-.54.92-.38,1.27.26s1.07.87,2.31.68l1-.15L217,8.43a5.26,5.26,0,0,1-3.19-3.24,4,4,0,0,0-.43-.66c-.28-.36-.27-.4.12-.61.55-.3,1,.06.81.65s1,2.65,1.93,3.09,1.92.75,2,.58a1.77,1.77,0,0,0-.45-.71,8.38,8.38,0,0,1-1-1.88c-.28-.71-.63-1.53-.78-1.82-.24-.46-.22-.53.1-.67.52-.22,1,.19.7.63S217.13,6,217.84,7c.41.59,1.14,1.14,1.36,1,.49-.26-.71-5.26-1.36-5.66s-.14-.91.46-.73c.33.1.45.28.44.67a13.22,13.22,0,0,0,.5,2.35,9.63,9.63,0,0,1,.45,2.47c0,.36,0,.68.08.71s.45-.28.81-.66c1.12-1.22,1.71-3.95,1-4.66-.35-.36-.22-1,.21-1s.87.63.62,1a1.46,1.46,0,0,0-.1.94,6.16,6.16,0,0,1-2.16,4.83c-.39.23-.39.26,0,.37,1,.3,3.22-1.52,2.87-2.37a.52.52,0,0,1,.64-.75.51.51,0,0,1,.16.94,1,1,0,0,0-.39.51,4.57,4.57,0,0,1-1.8,1.8,3.52,3.52,0,0,1-1.25.25h-.71l.52,1.82c1,3.54,2.63,6.9,3.55,7.39a2.34,2.34,0,0,1,.82.86c.27.55.31.57,1,.46a1.44,1.44,0,0,0,.83-.31,15.15,15.15,0,0,0,.66-3.29,23.44,23.44,0,0,1,1.52-6.16l.54-1.16L228,8.34a3.86,3.86,0,0,1-2.84-1.73,1.42,1.42,0,0,0-.64-.68c-.37-.12-.35-.45,0-.8a.46.46,0,0,1,.71.48c-.23.78,1.4,2.22,2.58,2.28.53,0,.52,0-.3-.76A4.83,4.83,0,0,1,226.1,3.7a1.79,1.79,0,0,0-.16-.86c-.21-.4-.06-.67.47-.81s.68.4.34,1c-.6,1,.08,3.27,1.19,4,.86.55,1,.57.83.16a12,12,0,0,1,.12-4.26,7.15,7.15,0,0,0,.19-1.77q-.12-.78.66-.72c.22,0,.17.44-.28,2-.6,2.18-.65,4-.12,4.87.26.44.28.44.65,0a5.94,5.94,0,0,0,.75-3.64c-.2-.44-.19-.49.19-.69s.45-.16.63.12a.4.4,0,0,1,0,.56,3.29,3.29,0,0,0-.38,1.28,7.8,7.8,0,0,1-.53,1.91c-.47,1-.29,1.17.77.58,1.22-.69,2.48-2.76,2.3-3.77a2.5,2.5,0,0,1,0-.88c.09-.27.79-.17.87.13a10.1,10.1,0,0,1-.61,1.77A5.62,5.62,0,0,1,231.14,8c-1,.43-.57.58.93.37A3.43,3.43,0,0,0,234.9,6.1c.35-.79.49-.94.81-.84s.42,1,0,1.13a7,7,0,0,0-1.18,1.07,4.1,4.1,0,0,1-4,1.31c-.88-.18-1-.15-1.27.36a29.07,29.07,0,0,0-1.78,6.28,6.13,6.13,0,0,0,0,3l.31,1.08,1.13.35a2.24,2.24,0,0,0,1.85,0,2.19,2.19,0,0,1,.94-.24c.35.11,3.59-3.15,4.76-4.79,1.38-1.93,1.4-2,.51-2.31a3,3,0,0,1-1.92-1.86,8,8,0,0,0-.46-1.26c-.44-.92.16-1.53.79-.8.14.16.12.4-.05.68s-.16.65.14,1.34a2,2,0,0,0,1.33,1.29l.93.39-.5-.77c-.79-1.23-.93-2.64-.47-4.69.4-1.75.61-2.09,1.08-1.73a.57.57,0,0,1-.14,1c-.66.35-1,2.52-.62,3.89.5,1.76.58,1.8,1.27.53a14.76,14.76,0,0,1,1-1.64,1.19,1.19,0,0,0,.35-.81.5.5,0,0,1,.63-.64c.47.14.48,1,0,1.08-.68.15-2.39,3.42-1.87,3.58a5.94,5.94,0,0,0,2.19-1.38,9.42,9.42,0,0,0,2.1-3.49c.09-.69.13-.72.53-.53s.54.91.13,1a6.82,6.82,0,0,0-1.11,1.46,6.92,6.92,0,0,1-2.54,2.78l-.8.5.72.21a3.5,3.5,0,0,0,4-2c.19-.63.26-.69.62-.52.51.24.47.86-.09,1.15a7.35,7.35,0,0,0-1.06.85,3.33,3.33,0,0,1-2.92,1c-1.23-.06-1.11.23.27.64a2.09,2.09,0,0,0,2.31-.4c.39-.42,1.23-.44,1.1,0s-.09.5.19.85.19,1.05-.26,1.08c-.75.06-.84,2.39-.13,3.39.34.49.57.49.47,0a7.58,7.58,0,0,1,1.18-3.6,6.91,6.91,0,0,1,1.16-1.19,2.32,2.32,0,0,0,.71-.78c0-.18.26-.23.56-.14s.46.27.41.59-.17.42-.47.33c-.84-.25-2.49,1.72-2.92,3.49-.28,1.19-.09,1.52.55.89A10.52,10.52,0,0,1,247.71,17a10.26,10.26,0,0,0,2.06-1.12c.26-.34.61-.3.95.09s-.11.82-.55.7c-.81-.23-4.79,1.8-5,2.57-.13.43.75.55,2.13.28,1.58-.3,2.32-.64,2.56-1.15s1-.3.85.38c-.08.43-.18.52-.47.44a.91.91,0,0,0-.7.1,10,10,0,0,1-3.55.8c-1.6-.14.31,1.07,2.16,1.37,1.05.17,2.73-.12,2.64-.45,0-.08.12-.27.33-.42s.4-.23.6.07c.38.58.13.83-1,1.05a6.42,6.42,0,0,1-5.08-.79c-.55-.43-.51,0,.07.82s1.61,1.42,2,1.28,2.09.42,2.12.77-.51.57-.88.32-2.57.95-3.14,1.56a5.91,5.91,0,0,0-.72,1.2l-.41.88.87-.24a12.11,12.11,0,0,1,1.88-.3,4.18,4.18,0,0,0,1.31-.26c.39-.26.83-.11.86.29a.65.65,0,0,1-1,.49,5.11,5.11,0,0,0-3.34.46l-.58.33.67.35a7,7,0,0,0,1.62.52c1.13.2,3.66-.09,4.06-.47s1.2,0,1,.52c-.09.28-.3.35-.82.28a5.91,5.91,0,0,0-1.45.05,12.94,12.94,0,0,1-4.22-.31l-.77-.22.6,1a2.85,2.85,0,0,0,1.55,1.42c1,.44,2.08.51,2.19.15,0-.11.23-.14.44-.08s.35.24.25.57-.24.45-1.47.2a5.72,5.72,0,0,1-3.49-2.06c-.27-.35-.41-.44-.37-.24.38,1.62,1.45,3,2.12,2.71.41-.17.89.15.77.53-.2.66-.7.55-1.71-.38a4.21,4.21,0,0,1-1.55-3.36,5.63,5.63,0,0,0,0-.9s-.7.07-1.49.17c-2.59.33-3.44.25-6.52-.6-4.09-1.13-3.88-1.11-4.56-.4-.5.52-.56.65-.35.81a2.92,2.92,0,0,1,.47,1.16,5.55,5.55,0,0,0,1.56,2.43,28.89,28.89,0,0,0,5,4.23c.94.59.91.59,1.24,0,.9-1.5,2.27-2,4.63-1.67,2.13.29,2.45.52,1.62,1.13-.33.24-.44.23-.71-.07a3.85,3.85,0,0,0-2.68-.78c-.64.12-2.32,1.06-2.23,1.24a1.46,1.46,0,0,0,.77,0,6.52,6.52,0,0,1,3.55.75c1.53,1,2,1.44,1.86,1.79-.15.51-1,.34-1-.21s-1.63-1.65-2.87-1.83c-1-.15-2.32,0-2.39.21,0,.08.24.28.59.45a19.1,19.1,0,0,1,3,2.3c.35.33.24.89-.18.92-.24,0-.45-.18-.62-.59a5.92,5.92,0,0,0-2.55-2.39c-.53-.16-.6-.13-.61.29,0,1.07,2.72,4.45,3.69,4.56a.61.61,0,0,1,.52.95.48.48,0,0,1-.84-.21A8.15,8.15,0,0,0,241.53,42a11.24,11.24,0,0,1-1.94-2.4c-.71-1.3-.77-1.29-1.08.08s.38,3.26,1.24,3.52a.9.9,0,0,1,.49.47c.13.31.08.41-.26.59s-.47.11-1.25-1.44A4.2,4.2,0,0,1,238,40a4.46,4.46,0,0,1,.29-1.37c.42-.53-.23-.32-.68.22a2.56,2.56,0,0,0-.6,2.75c.42.71.21,1.29-.43,1.19-.37-.06-.42-.16-.28-.61a6.9,6.9,0,0,0,.18-1.34,4.75,4.75,0,0,1,1.58-3l.49-.39-1.24-.86A31,31,0,0,1,232.22,32,4.48,4.48,0,0,0,231.16,31a4,4,0,0,1-.95-.81c-1-1.1-1.2-1-1.74,1a9.69,9.69,0,0,0-.37,3.38A30,30,0,0,0,229.34,41c.23.56.24.57.74.33s.81-.14,2.18.27c1.54.47,1.72.57,2.32,1.33.36.46.8,1,1,1.18s.32.44.09.93-.84-.06-.82-.58c.06-1.13-2-2.77-3.53-2.8-.79,0-.8,0-.39.31a7,7,0,0,1,2.44,2.77c.84,2.73.85,3.3.07,3.07-.29-.09-.35-.25-.22-.7a4.77,4.77,0,0,0-.43-2.77,5.82,5.82,0,0,0-2.14-1.88l-.52-.15.27.55a9.35,9.35,0,0,1,.48,2,15.79,15.79,0,0,0,.34,1.84c.12.36.07.45-.31.58-.6.22-.76,0-.5-.75.4-1.12-.39-4.42-.94-3.94-.84.72-.94,5.13-.14,6.15.42.54.16,1.13-.43,1-.31-.1-.44-.26-.38-.46a13.86,13.86,0,0,0-.07-2.26,11.43,11.43,0,0,1,.1-3.18c.29-1.31.23-1.46-.4-1.07-1.24.76-2.26,3.06-1.84,4.15.34.87-.24,1.45-.79.79a1.06,1.06,0,0,1,0-.78c.1-.31.31-1.08.47-1.7a4,4,0,0,1,1.2-2.09,5.3,5.3,0,0,0,.83-1,5.82,5.82,0,0,0-.78.09,2.4,2.4,0,0,0-2,1.58c-.25.77-.56,1.09-.94,1s-.34-1,.09-1.12a3.26,3.26,0,0,0,.94-.84,2.56,2.56,0,0,1,1.72-1,4.7,4.7,0,0,1,1.49-.16c.45.13.49-.12.17-1.15a29.18,29.18,0,0,1-1.07-6.44,13.69,13.69,0,0,0-.28-2.58,2.45,2.45,0,0,1-.25-1.09.84.84,0,0,0-.1-.67.83.83,0,0,0-.94-.23c-.57.18-11.36,33.43-46.45,42.56-1.52.41-2.23-3.56-.72-3.36,34-4.93,45.34-39.41,45.27-39.95S223.44,28.28,223.06,28.32Zm15.92.31a18.85,18.85,0,0,0,4.66-.29,4.1,4.1,0,0,0-.22-.76,3.52,3.52,0,0,1,0-1.63c.35-1.72,1.91-3.53,2.18-2.54.16.56,0,.83-.55.87s-.86.34-1.18,1.39c-.23.75,0,2.22.29,2.32.08,0,.28-.38.45-.9a4.7,4.7,0,0,1,2.19-2.72c.54-.36,1-.73.91-.82a2.55,2.55,0,0,0-.87-.39,3.44,3.44,0,0,1-2.1-2.41,2,2,0,0,0-.34-.84,7.44,7.44,0,0,0-1.35.56,32.18,32.18,0,0,1-6.45,2.16,14.89,14.89,0,0,0-3.89,1.24c0,.06,0,.53,0,1.05,0,.9,0,1,1,1.5a4.1,4.1,0,0,1,1.15.93c.26.47,2.44,1.13,4.25,1.28Zm-6.09-6.35a3,3,0,0,1,1.41,0c1.2.36,4.8-.56,8.35-2.13,1.25-.56,1.38-.66,1.11-.91a4.37,4.37,0,0,1-.66-1.12c-.3-.7-.3-1.06,0-2.39a8.34,8.34,0,0,0,.25-1.69c0-.08-.46,0-.93.13a4.18,4.18,0,0,1-3.51-.83l-.58-.48-.45.74a33.79,33.79,0,0,1-4.67,5.49c-1.08,1-2,1.93-2,2a5.21,5.21,0,0,0,.84,1.36,4,4,0,0,0,.84-.15Z"/></g></g></svg>