<?xml version="1.0" encoding="utf-8"?>
<!-- Generator: Adobe Illustrator 24.2.1, SVG Export Plug-In . SVG Version: 6.00 Build 0)  -->
<svg version="1.1" id="Ebene_1" xmlns="http://www.w3.org/2000/svg" xmlns:xlink="http://www.w3.org/1999/xlink" x="0px" y="0px"
	 viewBox="0 0 252.4 72.5" style="enable-background:new 0 0 252.4 72.5;" xml:space="preserve">
<style type="text/css">
	.st0{display:none;fill:#FFFFFF;stroke:#FFFFFF;stroke-width:0.2;stroke-miterlimit:10;}
	.st1{fill:#FFFFFF;stroke:#FFFFFF;stroke-width:0.2;stroke-miterlimit:10;}
	.st2{fill:#FFFFFF;}
</style>
<g id="Ebene_2_1_">
	<g id="Ebene_1-2">
		<path class="st0" d="M1,9.4h19.2v2.3h-3.3c-1-0.1-1.9,0.1-2.8,0.5c-0.5,0.3-0.7,0.8-0.7,1.3c0.1,0.7,0.3,1.3,0.6,1.9l0.2,0.6
			l12,30.5l10.6-29.1c0.2-0.7,0.3-1.4,0.3-2.1c0.1-1-0.3-2-1-2.7c-0.8-0.7-1.7-1-2.8-0.9h-3.1V9.4h16.8v2.3h-1.4
			c-1.2,0.1-2.3,0.6-3.1,1.4c-1.3,1.4-2.2,3-2.8,4.8L25.7,56h-2.2L7.4,15.3c-0.4-1.1-1-2.1-1.9-2.8c-0.9-0.6-1.9-0.8-3-0.8H1V9.4z"
			/>
		<path class="st0" d="M70,51.7l1.1,1.7c-1.3,1.4-3.1,2.3-5,2.3c-1.3,0-2.5-0.4-3.5-1.1c-1.2-1.1-2-2.5-2.5-4
			c-1.4,1.7-3.2,3-5.1,4.1c-1.7,0.7-3.5,1.1-5.3,1c-2.9,0-5.2-0.6-6.7-1.9c-1.5-1.2-2.4-2.9-2.4-4.8c0-3,1.8-5.5,5.3-7.5
			c3.5-2,8.2-3.3,14-4v-4.4c0-1.5-0.6-2.8-1.8-3.7c-1.4-1.1-3.1-1.7-4.9-1.6c-1.6-0.1-3.1,0.2-4.5,0.9c-0.9,0.5-1.5,0.9-1.5,1.5
			c0.1,0.5,0.4,1,0.8,1.4c0.5,0.6,0.8,1.4,0.9,2.2c0,0.8-0.3,1.7-0.9,2.3c-0.6,0.6-1.5,0.9-2.3,0.9c-1,0-1.9-0.3-2.6-1
			c-0.7-0.7-1-1.7-1-2.7c0-2,1.1-3.9,3.4-5.6c2.6-1.8,5.8-2.7,9-2.5c3.4,0,6,0.7,7.8,2.2c1.7,1.3,2.6,3.3,2.6,5.4v15.8
			c-0.1,1.1,0.2,2.1,0.7,3.1c0.4,0.6,1,1,1.8,1C68.4,52.7,69.3,52.3,70,51.7z M59.9,39.6c-5.2,0.7-8.9,1.9-11.1,3.5
			c-1.6,1.2-2.5,3.2-2.4,5.2c0.1,1.6,1,3.1,2.5,3.8c2.6,0.8,5.4,0.1,7.3-1.8c1.7-1.8,3.7-3.8,3.7-6.6L59.9,39.6z"/>
		<path class="st0" d="M74.1,26.1l10.4-0.5l0.1,9.1c2.3-5.4,5.4-8.6,9.7-9C95.6,25.5,97,26,98,27c1,1,1.5,2.4,1.4,3.8
			c0.1,1.1-0.3,2.1-0.9,3c-0.6,0.7-1.4,1.1-2.3,1.1c-0.8,0-1.7-0.3-2.2-0.9c-0.6-0.7-0.9-1.6-0.9-2.5c0-0.7,0.2-1.3,0.5-1.9
			c0.3-0.5,0.3-0.4,0.3-0.5c0-0.3,0-0.4-0.4-0.4c-0.8,0-1.3,0.3-2.3,1.3c-4.4,5-5.3,12-5.3,14.2l-0.5,6.2c0,0.6,0.3,1.2,0.8,1.6
			c0.8,0.4,1.6,0.6,2.5,0.6h3.7v2.3H74.3v-2.3h2.9c0.8,0,1.5-0.2,2.2-0.6c0.5-0.3,0.7-0.8,0.7-1.4V32.3c0.1-1.1-0.2-2.2-0.9-3.1
			c-0.7-0.7-1.6-1.1-2.6-1h-2.5V26.1z"/>
		<path class="st0" d="M102,26.1l11.5-0.3v24.8c-0.1,0.5,0.1,1.1,0.5,1.5c0.5,0.4,1.1,0.6,1.8,0.6h3.2v2.3h-16.4v-2.3h3
			c0.7,0.1,1.5-0.2,2-0.7c0.5-0.5,0.7-1.2,0.6-1.9V31.9c0.1-1-0.3-1.9-1-2.6c-0.8-0.6-1.9-1-2.9-0.9H102V26.1z M110,8.9
			c1.9,0,3.4,1.6,3.5,3.5c0,0.9-0.3,1.8-1,2.4c-0.6,0.7-1.5,1-2.4,1c-1.9,0-3.4-1.5-3.5-3.4c0-0.9,0.3-1.8,1-2.4
			C108.2,9.3,109.1,8.9,110,8.9z"/>
		<path class="st0" d="M121.8,26.1l11.5-0.3v24.8c-0.1,0.5,0.1,1.1,0.5,1.4c0.5,0.4,1.1,0.6,1.8,0.6h3.3v2.3h-16.4v-2.3h3
			c0.7,0.1,1.5-0.2,2-0.7c0.5-0.5,0.7-1.2,0.7-1.9V31.9c0.1-1-0.3-1.9-1-2.6c-0.8-0.6-1.9-1-2.9-0.9h-2.4L121.8,26.1z M129.8,8.9
			c1.9,0,3.4,1.6,3.5,3.5c0,0.9-0.3,1.8-1,2.4c-1.4,1.3-3.6,1.3-4.9,0c-0.6-0.6-1-1.5-1-2.4c0-0.9,0.3-1.8,1-2.4
			C128,9.3,128.9,8.9,129.8,8.9z"/>
		<path class="st0" d="M142.2,26.1l9.6-0.6c0.4,1.9,0.6,3.9,0.7,5.9c1.2-1.8,2.8-3.2,4.8-4.2c1.8-1.1,3.9-1.6,6-1.6
			c1.7-0.1,3.3,0.3,4.8,1.1c1.4,0.8,2.5,2.1,3.1,3.5c0.8,1.7,1.2,3.6,1.2,5.5v14c-0.1,0.8,0.2,1.6,0.7,2.2c0.7,0.5,1.5,0.7,2.4,0.7
			h2v2.3h-15.2v-2.3h1.4c1,0.1,2-0.1,2.8-0.7c0.6-0.5,0.9-1.2,0.8-1.9V37.7c0-2.7-0.4-4.7-1.2-6c-1.1-1.8-2.2-2.6-4.5-2.6
			c-2.3,0-4.4,1-5.8,2.8c-1.8,2-2.8,4.5-2.8,7.2l-0.3,10.6c-0.1,0.8,0.2,1.6,0.7,2.2c0.7,0.5,1.5,0.7,2.4,0.7h2v2.3h-15.3v-2.3h2
			c0.8,0.1,1.6-0.2,2.3-0.6c0.5-0.4,0.8-0.9,0.8-1.5V31.8c0.1-1-0.3-2-1-2.8c-0.8-0.7-1.8-1.1-2.9-1h-1.5V26.1z"/>
		<path class="st0" d="M184.1,14.3h2.1v11.8h9.3v2.8h-9.3v18.5c-0.1,1.3,0.3,2.6,1.1,3.7c0.7,0.8,1.8,1.3,2.9,1.3
			c1.4,0,2.2-0.7,3.2-2c1.3-1.9,2-4.1,2.1-6.4h2.1c-0.1,3.8-1,6.7-2.6,8.5c-1.6,1.8-3.9,2.9-6.3,2.8c-2.1,0.1-4.1-0.6-5.6-2
			c-1.4-1.3-2.1-3.2-2-5.1V28.9h-5v-2.1c2-0.3,3.9-1.3,5.2-2.9C183.1,21.6,184,18.4,184.1,14.3z"/>
		<path class="st1" d="M223.1,28.3c-0.9,0.2-1.8,0.6-2.6,1.2c-2,1.3-4,2.4-6.2,3.3c-0.5,0.2-1,0.4-1.5,0.8c0,0.3,0.1,0.6,0.3,0.9
			c0.5,1.1,0.5,2.3,0,3.4c-0.4,1.3-0.8,1.6-1.2,1c-0.1-0.2,0-0.4,0.4-0.8c0.7-0.8,0.9-1.9,0.6-2.9l-0.2-0.6l-0.4,1.2
			c-0.4,1.4-1.3,2.5-2.6,3.3c-0.4,0.2-0.7,0.5-1,0.8c0,0.1-0.2,0.1-0.5,0c-0.3-0.1-0.4-0.5-0.3-0.8c0.1-0.3,0.4-0.4,0.7-0.3
			c0.3,0,0.6,0,0.9-0.1c1-0.7,1.8-1.7,2.3-2.8c0.4-1.4,0.2-1.7-0.5-0.8s-3.7,2.5-4.1,2.3s-0.2-0.9,0.4-0.8c1.2-0.2,2.4-0.8,3.3-1.6
			c0.3-0.3,0.5-0.6,0.6-0.9c0.1-0.5,0.1-0.5-0.6-0.4c-1.1,0.1-4.4,1.5-4.7,1.9s-1,0.3-0.9-0.4c0.1-0.4,0.2-0.5,0.4-0.4
			c0.8-0.1,1.5-0.3,2.3-0.7c0.8-0.4,1.6-0.6,2.5-0.7c0.9,0.1,0.9-0.2,0.2-0.9c-1.2-1.1-3-1.4-4.5-0.7c-0.3,0.2-0.7,0.3-1.1,0.2
			c-0.3-0.2-0.1-1,0.2-0.9c0.5,0.1,1,0.1,1.5,0c1.6-0.1,3.2,0.4,4.4,1.4l0.7,0.7v-0.4c-0.1-0.9-0.6-1.8-1.4-2.3
			c-0.6-0.4-0.9-0.5-1.1-0.4c-0.5,0.3-1,0-0.8-0.5c0.1-0.3,0.4-0.5,0.7-0.5c0.1,0,0.3,0.1,0.4,0.2c0.3,0.3,0.6,0.5,1,0.7
			c0.9,0.5,1.5,1.3,1.6,2.3c0,0.4,0.1,0.7,0.2,0.8c1.7-0.5,3.3-1.2,4.9-2.1c2.1-1.2,3.3-2,3.6-2.5c0.2-0.4,0.4-0.7,0.7-1
			c0.4-0.5,0.4-0.6,0.1-1.1c-0.2-0.3-0.3-0.6-0.3-1c0-0.5-0.9-0.6-4.2-0.6c-2,0.1-4,0-5.9-0.3c-0.3-0.1-0.7-0.2-1.1-0.2
			c-0.4,0-0.4,0-0.4,0.5c-0.1,1.3-0.4,2.5-1.1,3.6c-0.2,0.2-0.4,0.4-0.5,0.6c-0.2,0.4-0.4,0.4-0.8,0.4s-0.5-0.2-0.4-0.6
			c0-0.3,0.3-0.5,0.6-0.5c0,0,0,0,0,0c0.4,0,0.7-0.2,0.9-0.5c0.5-0.8,0.8-1.7,0.8-2.6c-0.1-0.3-0.2-0.3-0.8,0.8
			c-0.7,0.9-1.7,1.6-2.8,1.9c-0.4,0.1-0.9,0.2-1.3,0.4c-0.4,0.3-0.9-0.1-0.7-0.6c0.1-0.3,0.3-0.4,0.9-0.2c0.4,0.1,0.9,0.1,1.3,0
			c1.1-0.4,1.9-1.2,2.5-2.3l0.2-0.6l-0.8,0.3c-1.1,0.4-2.4,0.6-3.6,0.5c-0.6,0-1.2,0-1.7,0c-0.8,0.1-1.3-0.2-1.1-0.6
			c0.1-0.2,0.4-0.3,1.1-0.1c0.6,0.1,1.2,0.2,1.8,0.3c1.8,0.1,4.4-0.7,4.2-1.2s-3.2-0.9-3.9-0.4c-0.2,0.2-0.6,0.1-0.8-0.1
			c-0.1-0.1-0.1-0.3-0.1-0.4c0.1-0.3,0.3-0.4,0.7-0.3c0.5,0.1,1.1,0.1,1.6,0.1c0.6,0,1.2,0.1,1.8,0.2c1,0.3,1-0.1-0.1-1.1
			s-3-1.7-3.8-1.3c-0.6,0.3-1.2,0.1-1-0.4c0.1-0.3,0.4-0.4,1.4-0.2c1.7,0.1,3.2,0.9,4.3,2.2c0.6,0.8,0.6,0.7,0.4-0.4
			c-0.1-1-0.7-1.9-1.6-2.4c-0.7-0.5-1-0.7-1.4-0.6c-0.6,0.1-0.8-0.3-0.5-0.9c0.2-0.3,0.9-0.3,1,0.1c0.3,0.3,0.6,0.6,1,0.9
			c1.3,0.8,2.1,2.2,2.1,3.7v1.3l1.6,0.4c2.3,0.4,4.7,0.5,7,0.4c1.3-0.3,3-1.1,3.1-1.7s0.1-0.6-0.5-0.9c-2.9-1.5-5.5-3.4-7.8-5.7
			l-0.6-0.6l-0.5,0.5c-0.9,0.9-2,1.4-3.2,1.6c-0.4,0-0.8,0-1.1,0c-0.4,0.1-0.5,0-0.7-0.3s-0.2-0.4,0.2-0.6s0.5-0.2,0.6,0.1
			c0.3,0.6,1.2,0.6,2.3,0.1s1.6-1,0.5-0.6c-0.7,0.2-1.4,0.1-2.1-0.2c-2.5-0.7-3.4-1.4-2.7-1.9c0.4-0.3,1,0,0.9,0.3s0.4,0.9,1.5,1.2
			c0.9,0.3,1.9,0.3,2.7-0.1c0.8-0.4,0.7-0.5-0.1-0.8c-1.5-0.6-2.8-1.6-3.8-2.9c-0.2-0.3-0.5-0.5-0.8-0.6c-0.4-0.1-0.4-0.2-0.3-0.6
			s1.1-0.5,1-0.1c-0.2,0.7,2.3,3.2,3.9,3.9c0.8,0.3,1,0.4,1.1,0.2c0.2-0.7-1.4-2.6-2.5-3.1l-0.5-0.2c-0.1,0-0.1-0.3,0-0.5
			c0.2-0.6,0.8-0.5,1,0.1c0.3,0.5,0.6,0.9,1,1.3c0.4,0.4,0.8,0.8,1.1,1.3c0.4,0.8,0.5,0.7,0.9-0.3c0.4-1.4-0.3-4.1-1.2-4.5l-0.5-0.2
			c-0.3-0.1,0.1-0.8,0.4-0.8s1.2,1.5,1.8,3.2c0.3,0.8,0.2,1.1-0.2,2.4c-0.3,0.9-0.4,1.5-0.3,1.5c0.5,0,1.3-0.9,1.7-1.9
			s0.4-1.1,0-1.5s-0.5-0.8,0-1c0.2-0.1,0.4,0,0.6,0.2s0.2,0.6-0.2,2c-0.5,1.6-0.5,1.6-1.3,2.2l-0.8,0.6l0.9,1c1.1,1,2.2,1.9,3.4,2.8
			c2,1.5,2.5,1.7,2.9,1.6c0.5-0.1,1,0,1.4,0.1c0.8,0.1,1.1,0.1,1.3-0.2s0.2-1.2-0.8-2.9c-1.1-2.2-2-4.4-2.8-6.7L219.1,9L218,9.3
			c-1.2,0.4-2.4,0.3-3.5-0.3c-0.9-0.4-1.1-0.6-1-0.9c0.2-0.5,0.9-0.4,1.3,0.3s1.1,0.9,2.3,0.7l1-0.1L217,8.4
			c-1.5-0.5-2.7-1.7-3.2-3.2c-0.1-0.2-0.3-0.5-0.4-0.7c-0.3-0.4-0.3-0.4,0.1-0.6c0.6-0.3,1,0.1,0.8,0.7s1,2.7,1.9,3.1
			c0.9,0.4,1.9,0.8,2,0.6c-0.1-0.3-0.2-0.5-0.4-0.7c-0.4-0.6-0.7-1.2-1-1.9c-0.3-0.7-0.6-1.5-0.8-1.8c-0.2-0.5-0.2-0.5,0.1-0.7
			c0.5-0.2,1,0.2,0.7,0.6s0.3,2.2,1,3.2c0.4,0.6,1.1,1.1,1.4,1c0.5-0.3-0.7-5.3-1.4-5.7s-0.1-0.9,0.5-0.7c0.3,0.1,0.4,0.3,0.4,0.7
			c0.1,0.8,0.3,1.6,0.5,2.3c0.3,0.8,0.4,1.6,0.4,2.5c0,0.4,0,0.7,0.1,0.7s0.4-0.3,0.8-0.7c1.1-1.2,1.7-4,1-4.7c-0.4-0.4-0.2-1,0.2-1
			s0.9,0.6,0.6,1c-0.1,0.3-0.2,0.6-0.1,0.9c0,1.9-0.8,3.6-2.2,4.8c-0.4,0.2-0.4,0.3,0,0.4c1,0.3,3.2-1.5,2.9-2.4
			c-0.1-0.2-0.1-0.6,0.2-0.7c0.1-0.1,0.3-0.1,0.5,0c0.3,0.1,0.5,0.3,0.4,0.6c0,0.1-0.1,0.3-0.2,0.3c-0.2,0.1-0.3,0.3-0.4,0.5
			c-0.4,0.8-1,1.4-1.8,1.8c-0.4,0.2-0.8,0.2-1.3,0.3h-0.7l0.5,1.8c1,3.5,2.6,6.9,3.6,7.4c0.3,0.2,0.6,0.5,0.8,0.9
			c0.3,0.5,0.3,0.6,1,0.5c0.3,0,0.6-0.1,0.8-0.3c0.3-1.1,0.6-2.2,0.7-3.3c0.2-2.1,0.7-4.2,1.5-6.2l0.5-1.2L228,8.3
			c-1.2-0.1-2.2-0.8-2.8-1.7c-0.1-0.3-0.4-0.5-0.6-0.7c-0.4-0.1-0.4-0.4,0-0.8c0.2-0.1,0.5-0.1,0.6,0.1c0.1,0.1,0.1,0.2,0.1,0.4
			c-0.2,0.8,1.4,2.2,2.6,2.3c0.5,0,0.5,0-0.3-0.8c-0.9-0.9-1.4-2.1-1.4-3.4c0-0.3,0-0.6-0.2-0.9c-0.2-0.4-0.1-0.7,0.5-0.8
			s0.7,0.4,0.3,1c-0.6,1,0.1,3.3,1.2,4c0.9,0.6,1,0.6,0.8,0.2c-0.2-1.4-0.2-2.9,0.1-4.3c0.1-0.6,0.2-1.2,0.2-1.8
			c-0.1-0.5,0.1-0.8,0.7-0.7c0.2,0,0.2,0.4-0.3,2c-0.6,2.2-0.6,4-0.1,4.9c0.3,0.4,0.3,0.4,0.6,0c0.6-1.1,0.9-2.4,0.8-3.6
			c-0.2-0.4-0.2-0.5,0.2-0.7s0.4-0.2,0.6,0.1c0.2,0.2,0.2,0.4,0,0.6c-0.2,0.4-0.3,0.8-0.4,1.3c-0.1,0.7-0.3,1.3-0.5,1.9
			c-0.5,1-0.3,1.2,0.8,0.6c1.2-0.7,2.5-2.8,2.3-3.8c-0.1-0.3-0.1-0.6,0-0.9c0.1-0.3,0.8-0.2,0.9,0.1c-0.1,0.6-0.4,1.2-0.6,1.8
			c-0.5,1.4-1.5,2.6-2.8,3.3c-1,0.4-0.6,0.6,0.9,0.4c1.3-0.2,2.4-1,2.8-2.3c0.4-0.8,0.5-0.9,0.8-0.8s0.4,1,0,1.1
			c-0.4,0.3-0.8,0.7-1.2,1.1c-1,1.1-2.5,1.6-4,1.3c-0.9-0.2-1-0.1-1.3,0.4c-0.8,2-1.4,4.1-1.8,6.3c-0.2,1-0.2,2,0,3l0.3,1.1l1.1,0.4
			c0.6,0.3,1.3,0.3,1.9,0c0.3-0.1,0.6-0.2,0.9-0.2c0.4,0.1,3.6-3.1,4.8-4.8c1.4-1.9,1.4-2,0.5-2.3c-0.9-0.3-1.6-1-1.9-1.9
			c-0.1-0.4-0.3-0.9-0.5-1.3c-0.4-0.9,0.2-1.5,0.8-0.8c0.1,0.2,0.1,0.4-0.1,0.7s-0.2,0.6,0.1,1.3c0.2,0.6,0.7,1.1,1.3,1.3l0.9,0.4
			l-0.5-0.8c-0.8-1.2-0.9-2.6-0.5-4.7c0.4-1.8,0.6-2.1,1.1-1.7c0.3,0.2,0.3,0.5,0.1,0.8c-0.1,0.1-0.2,0.2-0.3,0.2
			c-0.7,0.3-1,2.5-0.6,3.9c0.5,1.8,0.6,1.8,1.3,0.5c0.3-0.6,0.6-1.1,1-1.6c0.2-0.2,0.3-0.5,0.4-0.8c-0.1-0.3,0-0.5,0.3-0.6
			c0.1,0,0.2,0,0.3,0c0.5,0.1,0.5,1,0,1.1c-0.7,0.1-2.4,3.4-1.9,3.6c0.8-0.3,1.6-0.8,2.2-1.4c0.9-1,1.7-2.2,2.1-3.5
			c0.1-0.7,0.1-0.7,0.5-0.5s0.5,0.9,0.1,1c-0.4,0.4-0.8,0.9-1.1,1.5c-0.6,1.1-1.5,2.1-2.5,2.8l-0.8,0.5l0.7,0.2c1.6,0.4,3.3-0.5,4-2
			c0.2-0.6,0.3-0.7,0.6-0.5c0.5,0.2,0.5,0.9-0.1,1.1c-0.4,0.2-0.7,0.5-1.1,0.9c-0.8,0.8-1.8,1.2-2.9,1c-1.2-0.1-1.1,0.2,0.3,0.6
			c0.8,0.4,1.7,0.2,2.3-0.4c0.4-0.4,1.2-0.4,1.1,0s-0.1,0.5,0.2,0.9s0.2,1.1-0.3,1.1c-0.8,0.1-0.8,2.4-0.1,3.4
			c0.3,0.5,0.6,0.5,0.5,0c0.1-1.3,0.5-2.5,1.2-3.6c0.3-0.4,0.7-0.8,1.2-1.2c0.3-0.2,0.5-0.5,0.7-0.8c0-0.2,0.3-0.2,0.6-0.1
			s0.5,0.3,0.4,0.6s-0.2,0.4-0.5,0.3c-0.8-0.3-2.5,1.7-2.9,3.5c-0.3,1.2-0.1,1.5,0.6,0.9c0.7-0.5,1.5-0.9,2.3-1.3
			c0.7-0.3,1.4-0.7,2.1-1.1c0.3-0.3,0.6-0.3,0.9,0.1s-0.1,0.8-0.6,0.7c-0.8-0.2-4.8,1.8-5,2.6c-0.1,0.4,0.8,0.5,2.1,0.3
			c1.6-0.3,2.3-0.6,2.6-1.1s1-0.3,0.9,0.4c-0.1,0.4-0.2,0.5-0.5,0.4c-0.2-0.1-0.5,0-0.7,0.1c-1.1,0.5-2.3,0.8-3.6,0.8
			c-1.6-0.1,0.3,1.1,2.2,1.4c1.1,0.2,2.7-0.1,2.6-0.5c0-0.1,0.1-0.3,0.3-0.4s0.4-0.2,0.6,0.1c0.4,0.6,0.1,0.8-1,1
			c-1.7,0.5-3.6,0.2-5.1-0.8c-0.6-0.4-0.5,0,0.1,0.8s1.6,1.4,2,1.3s2.1,0.4,2.1,0.8s-0.5,0.6-0.9,0.3s-2.6,1-3.1,1.6
			c-0.3,0.4-0.5,0.8-0.7,1.2l-0.4,0.9l0.9-0.2c0.6-0.1,1.2-0.2,1.9-0.3c0.4,0,0.9-0.1,1.3-0.3c0.4-0.3,0.8-0.1,0.9,0.3
			c0,0.4-0.3,0.6-0.7,0.6c-0.1,0-0.2,0-0.3-0.1c-1.1-0.2-2.3-0.1-3.3,0.5l-0.6,0.3l0.7,0.4c0.5,0.2,1.1,0.4,1.6,0.5
			c1.1,0.2,3.7-0.1,4.1-0.5s1.2,0,1,0.5c-0.1,0.3-0.3,0.4-0.8,0.3c-0.5,0-1,0-1.4,0c-1.4,0.1-2.8,0-4.2-0.3l-0.8-0.2l0.6,1
			c0.3,0.7,0.9,1.2,1.6,1.4c1,0.4,2.1,0.5,2.2,0.1c0-0.1,0.2-0.1,0.4-0.1s0.4,0.2,0.3,0.6s-0.2,0.5-1.5,0.2c-1.4-0.2-2.6-1-3.5-2.1
			c-0.3-0.4-0.4-0.4-0.4-0.2c0.4,1.6,1.4,3,2.1,2.7c0.4-0.2,0.9,0.2,0.8,0.5c-0.2,0.7-0.7,0.5-1.7-0.4c-1-0.8-1.6-2.1-1.6-3.4
			c0-0.3,0-0.6,0-0.9c0,0-0.7,0.1-1.5,0.2c-2.6,0.3-3.4,0.3-6.5-0.6c-4.1-1.1-3.9-1.1-4.6-0.4c-0.5,0.5-0.6,0.6-0.4,0.8
			c0.2,0.3,0.4,0.7,0.5,1.2c0.3,0.9,0.8,1.8,1.6,2.4c1.5,1.6,3.2,3,5,4.2c0.9,0.6,0.9,0.6,1.2,0c0.9-1.5,2.3-2,4.6-1.7
			c2.1,0.3,2.4,0.5,1.6,1.1c-0.3,0.2-0.4,0.2-0.7-0.1c-0.8-0.6-1.7-0.9-2.7-0.8c-0.6,0.1-2.3,1.1-2.2,1.2c0.3,0.1,0.5,0.1,0.8,0
			c1.2-0.1,2.5,0.2,3.6,0.8c1.5,1,2,1.4,1.9,1.8c-0.1,0.5-1,0.3-1-0.2s-1.6-1.7-2.9-1.8c-1-0.2-2.3,0-2.4,0.2c0,0.1,0.2,0.3,0.6,0.5
			c1.1,0.7,2.1,1.4,3,2.3c0.4,0.3,0.2,0.9-0.2,0.9c-0.2,0-0.4-0.2-0.6-0.6c-0.6-1-1.5-1.9-2.6-2.4c-0.5-0.2-0.6-0.1-0.6,0.3
			c0,1.1,2.7,4.5,3.7,4.6c0.3,0,0.6,0.3,0.6,0.6c0,0.1,0,0.2-0.1,0.4c-0.2,0.2-0.5,0.2-0.7,0.1c-0.1-0.1-0.1-0.2-0.2-0.3
			c-0.4-0.5-0.9-1-1.5-1.4c-0.8-0.7-1.4-1.5-1.9-2.4c-0.7-1.3-0.8-1.3-1.1,0.1s0.4,3.3,1.2,3.5c0.2,0.1,0.4,0.3,0.5,0.5
			c0.1,0.3,0.1,0.4-0.3,0.6s-0.5,0.1-1.3-1.4c-0.6-0.8-0.8-1.8-0.7-2.8c0-0.5,0.1-0.9,0.3-1.4c0.4-0.5-0.2-0.3-0.7,0.2
			c-0.7,0.7-1,1.8-0.6,2.8c0.4,0.7,0.2,1.3-0.4,1.2c-0.4-0.1-0.4-0.2-0.3-0.6c0.1-0.4,0.2-0.9,0.2-1.3c0.1-1.2,0.7-2.2,1.6-3
			l0.5-0.4l-1.2-0.9c-1.9-1.3-3.6-2.9-5.1-4.6c-0.3-0.4-0.7-0.7-1.1-1c-0.4-0.2-0.7-0.5-0.9-0.8c-1-1.1-1.2-1-1.7,1
			c-0.3,1.1-0.4,2.2-0.4,3.4c0.2,2.2,0.6,4.3,1.2,6.4c0.2,0.6,0.2,0.6,0.7,0.3s0.8-0.1,2.2,0.3c1.5,0.5,1.7,0.6,2.3,1.3
			c0.4,0.5,0.8,1,1,1.2s0.3,0.4,0.1,0.9s-0.8-0.1-0.8-0.6c0.1-1.1-2-2.8-3.5-2.8c-0.8,0-0.8,0-0.4,0.3c1,0.7,1.9,1.6,2.4,2.8
			c0.8,2.7,0.9,3.3,0.1,3.1c-0.3-0.1-0.4-0.3-0.2-0.7c0.1-0.9,0-1.9-0.4-2.8c-0.5-0.8-1.3-1.4-2.1-1.9l-0.5-0.2l0.3,0.5
			c0.2,0.6,0.4,1.3,0.5,2c0.1,0.6,0.2,1.2,0.3,1.8c0.1,0.4,0.1,0.5-0.3,0.6c-0.6,0.2-0.8,0-0.5-0.8c0.4-1.1-0.4-4.4-0.9-3.9
			c-0.8,0.7-0.9,5.1-0.1,6.2c0.4,0.5,0.2,1.1-0.4,1c-0.3-0.1-0.4-0.3-0.4-0.5c0-0.8,0-1.5-0.1-2.3c-0.1-1.1-0.1-2.1,0.1-3.2
			c0.3-1.3,0.2-1.5-0.4-1.1c-1.2,0.8-2.3,3.1-1.8,4.2c0.3,0.9-0.2,1.5-0.8,0.8c-0.1-0.3-0.1-0.5,0-0.8c0.1-0.3,0.3-1.1,0.5-1.7
			c0.2-0.8,0.6-1.5,1.2-2.1c0.3-0.3,0.6-0.6,0.8-1c-0.3,0-0.5,0-0.8,0.1c-0.9,0.1-1.7,0.7-2,1.6c-0.3,0.8-0.6,1.1-0.9,1
			s-0.3-1,0.1-1.1c0.4-0.2,0.7-0.5,0.9-0.8c0.4-0.6,1-0.9,1.7-1c0.5-0.1,1-0.2,1.5-0.2c0.4,0.1,0.5-0.1,0.2-1.2
			c-0.6-2.1-1-4.3-1.1-6.4c0-0.9-0.1-1.7-0.3-2.6c-0.2-0.3-0.3-0.7-0.3-1.1c0.1-0.2,0-0.5-0.1-0.7c-0.2-0.3-0.6-0.4-0.9-0.2
			c-0.6,0.2-11.4,33.4-46.4,42.6c-1.5,0.4-2.2-3.6-0.7-3.4c34-4.9,45.3-39.4,45.3-40S223.4,28.3,223.1,28.3z M239,28.6
			c1.6,0.1,3.1,0,4.7-0.3c0-0.3-0.1-0.5-0.2-0.8c-0.1-0.5-0.1-1.1,0-1.6c0.4-1.7,1.9-3.5,2.2-2.5c0.2,0.6,0,0.8-0.6,0.9
			s-0.9,0.3-1.2,1.4c-0.2,0.8,0,2.2,0.3,2.3c0.1,0,0.3-0.4,0.4-0.9c0.4-1.2,1.1-2.1,2.2-2.7c0.5-0.4,1-0.7,0.9-0.8
			c-0.3-0.2-0.6-0.3-0.9-0.4c-1.1-0.4-1.8-1.3-2.1-2.4c0-0.3-0.2-0.6-0.3-0.8c-0.5,0.1-0.9,0.3-1.4,0.6c-2.1,0.9-4.2,1.7-6.4,2.2
			c-1.3,0.2-2.7,0.7-3.9,1.2c0,0.1,0,0.5,0,1c0,0.9,0,1,1,1.5c0.4,0.2,0.8,0.6,1.1,0.9c0.3,0.5,2.4,1.1,4.3,1.3L239,28.6z
			 M232.9,22.3c0.5-0.1,0.9-0.1,1.4,0c1.2,0.4,4.8-0.6,8.4-2.1c1.3-0.6,1.4-0.7,1.1-0.9c-0.3-0.3-0.5-0.7-0.7-1.1
			c-0.3-0.7-0.3-1.1,0-2.4c0.1-0.6,0.2-1.1,0.3-1.7c0-0.1-0.5,0-0.9,0.1c-1.2,0.3-2.5,0-3.5-0.8l-0.6-0.5l-0.4,0.7
			c-1.4,2-2.9,3.8-4.7,5.5c-1.1,1-2,1.9-2,2c0.2,0.5,0.5,1,0.8,1.4C232.3,22.4,232.6,22.4,232.9,22.3L232.9,22.3z"/>
	</g>
</g>
<g>
	<path class="st2" d="M19.5,55.2L1,13.9h2.2l17.9,39.9H20l17.9-39.9H40L21.5,55.2H19.5z"/>
	<path class="st2" d="M51.8,55.4c-2.3,0-4.3-0.4-5.9-1.1c-1.6-0.7-2.9-1.7-3.7-3c-0.9-1.3-1.3-2.8-1.3-4.5c0-1.5,0.4-2.9,1.1-4.2
		c0.7-1.3,1.9-2.3,3.5-3.1c1.6-0.8,3.8-1.2,6.6-1.2h11.9V40H52c-3.3,0-5.7,0.6-7.1,1.9c-1.4,1.3-2.1,2.9-2.1,4.8
		c0,2.2,0.8,3.9,2.4,5.2c1.6,1.3,3.9,1.9,6.7,1.9c2.8,0,5.2-0.6,7-1.9c1.8-1.3,3.2-3.1,4.2-5.5l0.6,1.3c-0.8,2.3-2.2,4.2-4.2,5.6
		C57.5,54.7,54.9,55.4,51.8,55.4z M63.2,55.2v-7.1L63.2,47V35.4c0-3-0.8-5.3-2.4-6.9c-1.6-1.6-4-2.4-7-2.4c-2.2,0-4.3,0.4-6.1,1.2
		c-1.8,0.8-3.4,1.8-4.8,3l-1.1-1.4c1.5-1.4,3.2-2.5,5.4-3.3c2.1-0.8,4.3-1.2,6.7-1.2c3.7,0,6.5,0.9,8.4,2.8c1.9,1.9,2.9,4.6,2.9,8.2
		v19.8H63.2z"/>
	<path class="st2" d="M77.9,55.2V24.6h1.9V33l-0.2-0.5c0.8-2.6,2.3-4.6,4.3-6c2.1-1.4,4.7-2.2,7.8-2.2v1.9c-0.1,0-0.2,0-0.3,0
		c-0.1,0-0.2,0-0.3,0c-3.5,0-6.3,1.1-8.3,3.4c-2,2.2-3,5.3-3,9.3v16.3H77.9z"/>
	<path class="st2" d="M101.2,16.6c-0.5,0-1-0.2-1.4-0.6c-0.4-0.4-0.6-0.8-0.6-1.3c0-0.6,0.2-1,0.6-1.4c0.4-0.4,0.8-0.6,1.4-0.6
		c0.6,0,1,0.2,1.4,0.6c0.4,0.4,0.6,0.8,0.6,1.3c0,0.5-0.2,1-0.6,1.4C102.2,16.4,101.7,16.6,101.2,16.6z M100.2,55.2V24.6h1.9v30.6
		H100.2z"/>
	<path class="st2" d="M116.2,16.6c-0.5,0-1-0.2-1.4-0.6c-0.4-0.4-0.6-0.8-0.6-1.3c0-0.6,0.2-1,0.6-1.4c0.4-0.4,0.8-0.6,1.4-0.6
		c0.5,0,1,0.2,1.4,0.6c0.4,0.4,0.6,0.8,0.6,1.3c0,0.5-0.2,1-0.6,1.4C117.2,16.4,116.8,16.6,116.2,16.6z M115.3,55.2V24.6h1.9v30.6
		H115.3z"/>
	<path class="st2" d="M144.8,24.3c2.5,0,4.7,0.5,6.5,1.5c1.8,1,3.3,2.4,4.3,4.3c1,1.9,1.5,4.3,1.5,7.1v18h-1.9V37.3
		c0-3.7-0.9-6.4-2.8-8.3c-1.8-1.9-4.4-2.8-7.8-2.8c-2.6,0-4.8,0.5-6.6,1.5c-1.8,1-3.3,2.5-4.2,4.4c-1,1.9-1.5,4.1-1.5,6.6v16.5h-1.9
		V24.6h1.9v8.6l-0.2-0.5c0.9-2.6,2.5-4.6,4.7-6.1C138.8,25.1,141.5,24.3,144.8,24.3z"/>
	<path class="st2" d="M164.6,26.3v-1.7h17.8v1.7H164.6z M178.2,55.4c-2.5,0-4.4-0.7-5.8-2.1c-1.3-1.4-2-3.3-2-5.7V17.9h1.9v29.4
		c0,2.1,0.5,3.7,1.5,4.8s2.5,1.7,4.5,1.7c2,0,3.7-0.6,5-1.8l1,1.4c-0.7,0.7-1.7,1.2-2.8,1.6C180.4,55.2,179.3,55.4,178.2,55.4z"/>
</g>
</svg>
